<svg xmlns="http://www.w3.org/2000/svg" viewBox="0 0 48 48"><path fill="#f38020" d="M33.264 19.056c-1.488 0-2.784 1.008-3.216 2.4h-6.816V16.32h2.208l2.16-1.2c.528.384 1.2.576 1.872.576 1.824 0 3.36-1.488 3.36-3.36s-1.536-3.36-3.36-3.36-3.36 1.488-3.36 3.36c0 .432.096.864.24 1.248l-1.392.672h-1.68V9.024h-.048c-.624-.48-1.392-.768-2.16-.912h-.096c-.912-.144-1.872-.048-2.784.288-.192.048-.384.144-.576.24h-.048c-.048.048-.096.048-.144.096-.816.48-1.44 1.152-1.92 1.92 0 .048-.048.096-.048.096l-.144.288c0 .048-.048.048-.048.096v.048h-.288c-1.392 0-2.736.576-3.696 1.536-1.008.96-1.536 2.304-1.536 3.696 0 .336.048.672.096 1.008-.624.432-1.152 1.008-1.536 1.68s-.576 1.392-.672 2.16c-.048.768.048 1.536.336 2.256s.72 1.392 1.248 1.92c-.384.864-.576 1.776-.528 2.688 0 .912.24 1.824.672 2.688s1.008 1.536 1.728 2.112c.624.48 1.296.816 2.064 1.056v-.048c.72.24 1.488.36 2.304.288h.048c0 .048.048.048.048.048.432.816 1.104 1.44 1.92 1.92.048.048.096.048.144.096h.048c.192.096.384.192.576.24.672.288 1.44.384 2.16.336.192 0 .384-.048.624-.048h.048c.768-.144 1.488-.432 2.16-.912v-4.848h1.68l1.488.816c-.144.384-.24.816-.24 1.248 0 1.824 1.488 3.36 3.36 3.36s3.36-1.488 3.36-3.36-1.488-3.36-3.36-3.36c-.72 0-1.344.24-1.872.576l-2.208-1.2h-2.208V23.376h6.864c.432 1.392 1.68 2.4 3.216 2.4 1.824 0 3.36-1.488 3.36-3.36s-1.536-3.36-3.36-3.36m-3.792-8.112c.768 0 1.44.624 1.44 1.44s-.672 1.44-1.44 1.44-1.44-.624-1.44-1.44.624-1.44 1.44-1.44m0 19.872c.768 0 1.44.624 1.44 1.44s-.672 1.44-1.44 1.44-1.44-.624-1.44-1.44.672-1.44 1.44-1.44M21.264 34.56c-.192.096-.336.144-.528.144-.096 0-.192.048-.24.048h-.096c-.432.048-.816 0-1.248-.144-.48-.144-.912-.432-1.296-.816-.336-.384-.624-.816-.768-1.296l-.144-.72v-.336c0-.24.048-.48.144-.72.048-.096.048-.192.096-.336s.144-.288.24-.432c0-.048.048-.048.048-.096.048-.048.048-.096.096-.144s.048-.096.096-.144c0 0 0-.048.048-.048l.288-.288-1.296-1.68c-.624.528-1.104 1.152-1.392 1.872-.096.192-.192.432-.24.624v.048c-.048.096-.048.192-.048.288-.144.528-.192 1.104-.144 1.632-.144 0-.336 0-.48-.048-1.056-.192-2.016-.72-2.64-1.536-.672-.816-.96-1.872-.864-2.928.048-.288.096-.576.288-1.152l.144-.288c.048-.096.096-.192.144-.24 0 0 0-.048.048-.048.192-.336.432-.624.72-.912.768-.72 1.824-1.104 2.88-1.104.336 0 .672.048 1.008.144v-2.16c-.336-.048-.672-.096-1.008-.096-.864 0-1.68.192-2.496.528-.336.144-.624.288-.912.48s-.528.384-.816.624c-.144.096-.24.24-.384.384-.288-.384-.48-.768-.624-1.248-.096-.48-.096-.96 0-1.392.096-.48.288-.912.624-1.248.288-.384.672-.672 1.104-.864l.864-.432-.336-.912c-.192-.48-.24-1.008-.192-1.488s.24-1.008.528-1.392c.288-.432.624-.768 1.152-1.008.432-.24.96-.384 1.44-.336.24 0 .48.048.72.096.48.096.864.336 1.248.624s.672.672.864 1.104l1.968-.72c-.432-.96-1.104-1.776-2.016-2.352-.192-.096-.288-.144-.432-.288.192-.336.48-.672.768-.912.384-.336.864-.528 1.392-.624.432-.096.816-.048 1.248 0 .192.048.336.096.528.144V34.56zm12-10.704c-.768 0-1.44-.624-1.44-1.44 0-.768.624-1.44 1.44-1.44s1.44.624 1.44 1.44c0 .768-.624 1.44-1.44 1.44"/></svg>