<svg xmlns="http://www.w3.org/2000/svg" viewBox="0 0 48 48" fill="#f38020"><path d="M10.875 16.125a1.575 1.575 0 1 0 0-3.15 1.575 1.575 0 0 0 0 3.15m5.025 0a1.575 1.575 0 1 0 0-3.15 1.575 1.575 0 0 0 0 3.15m5.025 0a1.575 1.575 0 1 0 0-3.15 1.575 1.575 0 0 0 0 3.15"/><path d="M42 8.925H6l-1.5 1.5v29.925l1.5 1.5h36l1.5-1.5V10.425zm-1.5 3V17.1h-33V11.925zm-33 26.925V20.1h33v18.75z"/><path d="m29.7 27.45.3-.15-1.125-1.95-3.825 2.4.075-4.575h-2.25L23.95 27.75l-3.825-2.4L18 27.3l3.975 2.175L18 31.65l1.125 1.95 3.825-2.4-.075 4.5h2.25l-.075-4.5 3.825 2.4 1.125-1.95-3.975-2.175z"/></svg>