<svg xmlns="http://www.w3.org/2000/svg" viewBox="0 0 48 48" fill="#f38020"><path d="M21.43 28.64H10.884l-1.28-2.406L27.346 0l2.794 1.158-3.504 18.224h10.48l1.296 2.384L21.438 48l-2.824-1.08ZM8.182 10.896a1.1574 1.1574 0 1 1 0-2.3148 1.1574 1.1574 0 0 1 0 2.3148zm3.086 0a1.1574 1.1574 0 1 1 0-2.3148 1.1574 1.1574 0 0 1 0 2.3148zm3.088 0a1.1574 1.1574 0 1 1 0-2.3148 1.1574 1.1574 0 0 1 0 2.3148zm17.314-5.4h10.848l1.544 1.542v33.95l-1.544 1.544H27.734l.748-1.158h13.558l.864-.864V7.516l-.864-.864h-9.352l-1.104 5.7h-1.18l1.058-5.754.216-1.104ZM5.48 42.53l-1.544-1.544V7.036l1.544-1.542h15.354l-.772 1.158H5.96l-.864.864v32.992l.864.864h11.172l-.184 1.158zm2.314-3.86h6.56l-.232 1.16h-7.1l-.384-.386v-6.946l1.156 2.316zm26.234 0 1.158 1.16H29.4l.77-1.16z"/></svg>