<svg xmlns="http://www.w3.org/2000/svg" viewBox="0 0 48 48" fill="currentColor"><path d="M24 6c-9.941 0-18 8.059-18 18s8.059 18 18 18 18-8.059 18-18S33.941 6 24 6zm0 3c8.284 0 15 6.716 15 15s-6.716 15-15 15S9 32.284 9 24 15.716 9 24 9zm-8.485 6.515a1.5 1.5 0 0 0-1.061 2.56l7.5 7.5a1.5 1.5 0 0 0 2.121 0l7.5-7.5a1.5 1.5 0 0 0-2.121-2.121L24 21.439l-5.454-5.454a1.5 1.5 0 0 0-1.061-.439z"/><path d="M15.515 22.515a1.5 1.5 0 0 0-1.061 2.56l7.5 7.5a1.5 1.5 0 0 0 2.121 0l7.5-7.5a1.5 1.5 0 0 0-2.121-2.121L24 28.439l-5.454-5.454a1.5 1.5 0 0 0-1.061-.439z"/></svg>