<svg xmlns="http://www.w3.org/2000/svg" viewBox="0 0 48 48" fill="#f38020"><path d="m18.2175 26.4125 2.1225 2.1225 7.8675-7.8675-7.8675-7.86-2.1225 2.1225 4.245 4.2375H.0075v3h22.455z"/><path d="m32.5725 6.335-1.0275-.1425A20.94 20.94 0 0 1 20.0175 .5l-.8925-1.0125h-2.25L15.755.5A20.865 20.865 0 0 1 4.5 6.1925l-1.0275.1425-1.29 1.5V17.25h3v-7.125A24.075 24.075 0 0 0 18 3.75a24.12 24.12 0 0 0 12.8625 6.375v9.3C30.8625 31.695 19.5 37.5475 18 38.3125 16.8525 37.75 9.435 33.5725 6.4275 25.25h-3.18c3.3075 10.0725 13.065 15.0675 13.56 15.315l.5325.27h1.3425l.5325-.27c.6-.2925 14.6475-7.5 14.6475-22.14V7.82z"/></svg>