<svg xmlns="http://www.w3.org/2000/svg" viewBox="0 0 48 48" fill="#f38020"><path d="M33.0176 33.6894c.295-1.0136.1816-1.9414-.3106-2.6308-.4492-.6328-1.209-.998-2.123-1.041l-17.3184-.2246a.3118.3118 0 0 1-.2666-.1426c-.0566-.084-.0702-.1972-.042-.3106.0556-.168.2246-.2968.4072-.3124l17.4718-.2246c2.0702-.0978 4.3202-1.7736 5.1074-3.8272l.998-2.6026c.043-.1122.0586-.2256.0294-.336-1.125-5.0926-5.67-8.8906-11.0998-8.8906-5.0078 0-9.2568 3.2354-10.7752 7.7228-.9854-.7316-2.2374-1.125-3.588-.998-2.4052.238-4.333 2.166-4.5722 4.5712-.0566.62-.0138 1.2256.127 1.788C3.1366 26.342 0 29.5508 0 33.504c0 .3496.0284.703.0704 1.0546.0282.166.1688.295.3378.295h31.9628c.1818 0 .3516-.129.4064-.3106l.24-.8536zm5.5136-11.1268c-.1542 0-.3222 0-.4766.0224-.1132 0-.2108.083-.254.1952l-.6756 2.3488c-.295 1.0136-.1836 1.9414.3086 2.6328.4512.6328 1.211.996 2.125 1.039l3.6874.2266c.1114 0 .211.0526.2658.1406.0566.086.0702.2148.0428.3124-.0566.168-.2264.297-.408.3106l-3.842.2246c-2.082.0976-4.3164 1.7734-5.1054 3.828l-.2812.717c-.0566.1426.043.2832.1972.2832h13.1954c.1542 0 .2948-.0978.338-.252.2244-.8164.3514-1.674.3514-2.5606 0-5.205-4.25-9.454-9.4688-9.454"/></svg>