<svg xmlns="http://www.w3.org/2000/svg" viewBox="0 0 48 48" fill="#f38020"><path fill-rule="evenodd" d="m6.621 7.143 5.061-3.852L12.63 3h22.812l.939.306 5.208 3.855.645 1.269v29.94l-.435 1.086-3.804 4.029-1.152.495H11.901l-1.08-.426-4.317-4.026L6 38.37V8.43l.621-1.287Zm2.532 20.022 3.522 3.894h.042v3.15h-1.44l-2.124-2.364v5.823l3.354 3.15h23.64l2.916-3.078v-6.084l-2.892 2.553H21.48v-3.15h13.515l4.089-3.633V21.564l-2.892 2.559H21.48v-3.15h13.515l4.089-3.624v-5.454l-2.892 2.568H11.31l-2.16-2.205v4.821l3.525 3.894h.042v3.15h-1.44l-2.124-2.364v5.406Zm25.77-21.012H13.164l-3.207 2.448 2.679 2.742h22.362l3.15-2.805-3.219-2.385Z"/><path d="M17.1 25.356a2.364 2.364 0 1 1 0 4.728 2.364 2.364 0 0 1 0-4.728Zm-2.79 11.574 2.79-2.787 2.784 2.787-2.787 2.784-2.784-2.784Zm2.79-21.15 2.388 1.38v2.76l-2.391 1.38-2.388-1.38v-2.76l2.388-1.38Z"/></svg>