<svg xmlns="http://www.w3.org/2000/svg" viewBox="0 0 48 48" fill="#f38020"><path d="M3.75 38.3111V27.9523L12.8267 22.7633L21.9162 27.9459V38.3048L12.8331 43.4937L3.75 38.3111ZM5.82741 37.1229L12.8331 41.1299L19.8388 37.1229V29.1341L12.8331 25.1334L5.83631 29.1341V37.1229H5.82741Z"/><path d="M23.9873 25.2367L14.9042 20.0478V9.68888L23.9873 4.5L33.0704 9.68258V20.0478L23.9873 25.2367ZM16.9816 18.8659L23.9873 22.8666L30.9929 18.8659V10.8708L23.9873 6.8764L16.9816 10.8771V18.8659Z"/><path d="M35.1669 43.4747L26.0903 38.2858V27.9269L35.1669 22.7381L44.25 27.908V38.2732L35.1669 43.4747ZM28.1676 37.1039L35.1669 41.1046L42.1726 37.0976V29.1025L35.1669 25.1144L28.1676 29.1152V37.1039Z"/><path d="M35.9787 33.5646H12.0278L23.9425 14.8378L35.9787 33.5646ZM15.211 31.8266H32.7827L23.9489 18.0926L15.211 31.8266Z"/><path d="M23.9494 18.0445C22.7157 18.0445 21.5971 17.3114 21.1241 16.1801C20.6511 15.0487 20.9132 13.7468 21.7825 12.8872C22.6582 12.0213 23.975 11.7622 25.1127 12.2299C26.2569 12.6976 26.9984 13.7973 26.9984 15.0234C26.9984 15.8261 26.6788 16.5908 26.1035 17.1596C25.5282 17.7285 24.7547 18.0445 23.943 18.0445"/><path d="M35.1823 36.2763C33.9422 36.2826 32.8236 35.5558 32.3442 34.4245C31.8648 33.2995 32.1205 31.9912 32.9898 31.1253C33.8591 30.2594 35.1759 29.994 36.3201 30.4617C37.4642 30.9294 38.2121 31.7291 38.2121 32.9552C38.2121 34.9175 36.607 36.5136 35.1759 36.2763H35.1823Z"/><path d="M12.808 36.2763C11.5744 36.2763 10.4558 35.5431 9.98273 34.4118C9.5097 33.2805 9.77184 31.9848 10.6411 31.1189C11.5169 30.2531 12.8272 29.9939 13.9714 30.4616C15.1155 30.9293 15.857 31.7291 15.857 32.9552C15.857 33.7579 15.5374 34.5227 14.9621 35.0915C14.3869 35.6603 13.6134 35.9763 12.8016 35.9763H12.808Z"/></svg>