<svg xmlns="http://www.w3.org/2000/svg" viewBox="0 0 48 48" fill="#f38020"><path fill-rule="evenodd" d="m43.119 10.59-1.02-.141a20.94 20.94 0 0 1-11.529-5.694l-.891-1.005h-2.25l-.87 1.005A20.94 20.94 0 0 1 15.06 10.446l-1.02.144-1.29 1.5V15h-7.5l-1.5 1.5v18.75l1.5 1.5h12.48a31.428 31.428 0 0 0 9.588 8.052l.033.018.534.27h1.35l.534-.27c.591-.294 14.64-7.5 14.64-22.14V12.075l-1.29-1.485Zm-21.474 26.16a27.87 27.87 0 0 0 6.915 5.319c1.5-.765 12.849-7.125 12.849-19.389v-9.3A24.084 24.084 0 0 1 28.56 7.005 24.114 24.114 0 0 1 15.714 13.38V15H33l1.5 1.5v18.75l-1.5 1.5H21.645ZM6.75 31.806V19.8l6.666 5.811-6.666 6.198Zm2.316 1.944L15.69 27.591l2.448 2.136h1.974l2.625-2.289L29.28 33.75H9.06Zm22.434-2.031L25.005 25.458 31.5 19.8v11.922ZM9.252 18h19.746L19.125 26.607 9.255 18Z"/></svg>