<svg xmlns="http://www.w3.org/2000/svg" viewBox="0 0 48 48" fill="#f38020"><path d="M31.4274 13.6538C32.7659 13.6538 33.8514 14.7213 33.8514 16.0378C33.8514 17.3543 32.7659 18.4218 31.4274 18.4218C30.0889 18.4218 29.0034 17.3543 29.0034 16.0378C29.0034 14.7213 30.0889 13.6538 31.4274 13.6538Z"/><path fill-rule="evenodd" d="M20.9423 13.3502C25.2408 9.5302 31.5477 5.80991 40.5131 5.80991L41.9496 7.24641C41.9496 16.2113 38.2306 22.5466 34.5413 26.7812C34.2484 27.138 33.9554 27.4811 33.6645 27.8093L34.3751 34.881L33.9419 36.0686L28.1748 41.7756L25.636 40.5483L26.5766 34.9421L25.1152 32.7131L24.4063 32.0043L21.1957 34.446L19.2064 34.3097L12.9182 27.9869L12.7806 26.0982L15.2502 22.9472L14.8023 22.4994L12.5614 21.0424L7.04648 22.0034L5.76872 19.5201L11.5129 13.8467L12.6842 13.4248L19.8723 14.0701C20.1963 13.7668 20.5343 13.4619 20.9423 13.3502ZM17.3587 25.2415L22.2357 30.1152L20.4864 31.3488L16.0159 26.8583L17.3587 25.2415ZM26.3946 30.097L17.5146 21.1788C17.7256 20.8674 17.9923 20.4903 18.3147 20.0612C19.2689 18.8062 20.7239 17.1389 22.6779 15.4727C25.0584 13.4344 28.1624 11.4081 32.0135 10.072C32.2192 10.2104 32.4568 10.3853 32.7205 10.5929C33.3862 11.1625 34.1625 11.8981 34.9183 12.677C35.6741 13.4559 36.3862 14.2555 36.933 14.9421C37.1402 15.2203 37.3158 15.4716 37.4538 15.6773C36.1306 19.5773 34.1899 22.5841 32.2356 24.9068C30.6451 26.8037 29.0533 28.1982 27.8646 29.1226C27.4559 29.4473 27.0942 29.7188 26.3946 30.097ZM28.2652 32.2602L29.2892 33.8137L29.5128 34.8499L29.2663 36.3318L31.1117 34.4619L30.7226 30.3707C30.2153 30.81 29.7408 31.1951 29.3126 31.5256C28.954 31.8008 28.6291 32.0377 28.2652 32.2602ZM16.085 18.402C15.7984 18.7756 15.5512 19.1164 15.3413 19.4343L13.7687 18.377L12.7031 18.1551L11.3135 18.4093L13.0705 16.4963L17.2807 16.8613C16.836 17.4049 16.4457 17.9166 16.085 18.402ZM38.8316 8.80518C38.7751 9.90298 38.6565 10.9574 38.4866 11.9693C38.0714 11.505 37.6216 11.0295 37.1637 10.5685C36.7057 10.1075 36.2332 9.65463 35.7734 9.24288C36.7059 9.07515 37.683 8.96229 38.8316 8.80518Z"/><path fill-rule="evenodd" d="M14.9437 32.5881C13.7641 31.3993 12.3362 31.0254 10.9248 31.4331C9.65403 31.7983 8.64227 32.7326 7.92424 33.6763C7.18521 34.6531 6.6044 35.8199 6.24333 36.9242C5.89619 38.0849 5.68252 39.3863 5.88416 40.4764L7.04257 41.6452C8.1347 41.852 9.44462 41.6397 10.6095 41.2907C11.8174 40.9274 12.9841 40.3451 13.9674 39.5994C14.9221 38.8769 15.8661 37.8753 16.2363 36.6137C16.6542 35.1907 16.2406 33.7507 14.9437 32.5881ZM9.62452 38.6399C9.42468 38.7082 9.23824 38.7623 9.06503 38.8046C9.10736 38.6302 9.16029 38.4419 9.22796 38.2401C9.50436 37.4069 9.94274 36.5347 10.4647 35.8449C11.0097 35.1374 11.5197 34.7963 11.8772 34.6901C12.1056 34.6199 12.4223 34.5851 12.9508 35.1205C13.4807 35.6572 13.4461 35.9783 13.3759 36.2092C13.2596 36.5705 12.8697 37.08 12.1611 37.622C11.4871 38.142 10.6388 38.5743 9.62452 38.6399Z"/></svg>