<svg xmlns="http://www.w3.org/2000/svg" viewBox="0 0 16 16"><defs><radialGradient id="cloudflare-icon-magic-transit_svg__a" cx=".527" cy=".527" r=".473" gradientTransform="matrix(29.2265 0 0 29.2265 -7.353 -7.353)" gradientUnits="userSpaceOnUse"><stop offset="0" stop-color="#f38020"/><stop offset="1" stop-color="#faa21b"/></radialGradient></defs><path fill="url(#cloudflare-icon-magic-transit_svg__a)" d="M8.485 9.678a.5.5 0 0 0 0-.871L.901 4.441A.5.5 0 0 0 .166 4.88v8.733a.5.5 0 0 0 .735.44l7.584-4.374Zm6.614-5.237a.5.5 0 0 0-.735-.44L8.002 7.663V1.5a.5.5 0 0 0-1 0v13a.5.5 0 0 0 1 0V8.536l6.362 3.463a.5.5 0 0 0 .735-.44V4.44Z"/></svg>