<svg xmlns="http://www.w3.org/2000/svg" viewBox="0 0 16 16"><defs><radialGradient id="cloudflare-icon-magic-firewall_svg__a" cx=".527" cy=".527" r=".473" gradientTransform="matrix(29.2265 0 0 29.2265 -7.353 -7.353)" gradientUnits="userSpaceOnUse"><stop offset="0" stop-color="#f38020"/><stop offset="1" stop-color="#faa21b"/></radialGradient></defs><path fill="url(#cloudflare-icon-magic-firewall_svg__a)" d="M1.002 7.086c0-.297.12-.584.33-.794l5.36-5.36a1.166 1.166 0 0 1 1.586 0l5.36 5.36c.21.21.33.497.33.794v7.418c0 .641-.519 1.16-1.16 1.16H2.161c-.64 0-1.16-.519-1.16-1.16V7.086Zm1.58 7.086h2.669v-2.84c0-1.173.95-2.124 2.123-2.124h.83c1.173 0 2.123.95 2.123 2.124v2.84h2.67V7.498L7.708 2.21 2.582 7.336v6.836Zm6.167-2.84c0-.414-.336-.75-.75-.75h-.83c-.414 0-.75.336-.75.75v2.84h2.33v-2.84Z"/></svg>