<svg viewBox="0 0 40 40" fill="currentColor" xmlns="http://www.w3.org/2000/svg"><path fill="currentColor" d="M11.154 19.894 5.33 14.21l-1.612 1.65 2.656 2.594H1.942a1.442 1.442 0 1 0 0 2.884h4.433L3.72 23.927l1.61 1.653 5.823-5.685Zm28.352 0-5.823-5.685-1.612 1.65 2.656 2.594h-4.433a1.442 1.442 0 1 0 0 2.884h4.433l-2.655 2.591 1.611 1.651z"></path><rect width="23.07" height="2.884" x="7.911" y="7" fill="currentColor" rx="1.442"></rect><rect width="23.07" height="2.884" x="7.911" y="30.07" fill="currentColor" rx="1.442"></rect><path fill="currentColor" d="M13.679 14.21c.796 0 1.442.645 1.442 1.441v8.651a1.442 1.442 0 1 1-2.884 0v-8.65c0-.797.646-1.443 1.442-1.443Zm5.767 0c.797 0 1.442.645 1.442 1.441v8.651a1.442 1.442 0 1 1-2.884 0v-8.65c0-.797.646-1.443 1.442-1.443Zm5.768 0c.796 0 1.442.645 1.442 1.441v8.651a1.442 1.442 0 1 1-2.884 0v-8.65c0-.797.645-1.443 1.442-1.443Z"></path></svg>