<svg xmlns="http://www.w3.org/2000/svg" viewBox="0 0 48 48" fill="#f38020"><path fill-rule="evenodd" d="M7.384 36V5.25h3v5.237h2.958l1.5-1.779h1.5l1.5 1.779h2.796l1.5-1.779h1.5l1.5 1.779h12.249V5.25h3V36h1.5v3h3.113v3H4.5v-3h1.387v-3h1.497zm5.959-22.508l1.5 1.5h1.5l1.499-1.5h2.798l1.5 1.5h1.5l1.499-1.5h11.249v6.066h-3.773l-1.5-1.5h-1.5l-1.5 1.5H17.843l-1.5-1.5h-1.5l-1.5 1.5h-2.959v-6.066h2.959zm0 9.071h-2.959v5.932h11.378l1.5-1.5h1.5l1.5 1.5h2.854l1.5-1.5h1.5l1.5 1.5h3.772v-5.932h-3.773l-1.5 1.5h-1.5l-1.5-1.5h-11.272l-1.5 1.5h-1.5l-1.5-1.5zm11.27 9.937l1.5 1.5h1.5l1.5-1.5h2.854l1.5 1.5h1.5l1.5-1.5h3.772V39h-25.5v-4.5h11.377z"/></svg>