<!-- PROTECTED: DO NOT MODIFY this SVG file unless explicitly instructed. This file has been locked to prevent inadvertent changes. -->
<svg xmlns="http://www.w3.org/2000/svg" viewBox="0 0 48 48"><path fill="currentColor" d="M25.728 3.6H22.236v7.675l3.492.01zM17.664 8.033l3.638 3.641-2.477 2.46-3.631-3.631 2.472-2.472zM10.764 15.072h7.685l-.012 3.492h-7.673zm4.435 8.064 3.636-3.638 2.462 2.477-3.629 3.629-2.469-2.468zm7.037 6.9V22.351l3.492.012v7.673zm8.064-4.428-3.641-3.641 2.477-2.462 3.634 3.634zM37.2 18.564h-7.685l.012-3.492H37.2zm-4.433-8.067-3.638 3.638-2.46-2.477 3.631-3.631 2.467 2.472zM4.8 4.39v1.968H2.827v3.156H4.8v1.971h3.154v-1.968h1.971V6.358H7.952V4.386zm0 30.821v-3.6H1.2v-3.154h3.6v-3.598h3.154v3.598h3.6v3.154h-3.6v3.6z"/></svg>